<?xml version="1.0" encoding="UTF-8" standalone="no"?>
<!DOCTYPE svg PUBLIC "-//W3C//DTD SVG 1.1//EN"
 "http://www.w3.org/Graphics/SVG/1.1/DTD/svg11.dtd">
<!-- Generated by graphviz version 16.1.0 (20260904.0139)
 -->
<!-- Title: focus_chain Pages: 1 -->
<svg width="920pt" height="762pt"
 viewBox="0.00 0.00 920.00 762.00" xmlns="http://www.w3.org/2000/svg" xmlns:xlink="http://www.w3.org/1999/xlink">
<g id="graph0" class="graph" transform="scale(1 1) rotate(0) translate(4 757.5)">
<title>focus_chain</title>
<polygon fill="white" stroke="none" points="-4,4 -4,-757.5 915.5,-757.5 915.5,4 -4,4"/>
<!-- maven&#45;api&#45;core -->
<g id="node1" class="node">
<title>maven&#45;api&#45;core</title>
<polygon fill="none" stroke="black" points="626.75,-628 525.25,-628 525.25,-592 626.75,-592 626.75,-628"/>
<text xml:space="preserve" text-anchor="middle" x="576" y="-604.95" font-family="Times,serif" font-size="14.00">maven&#45;api&#45;core</text>
</g>
<!-- maven&#45;api&#45;model -->
<g id="node2" class="node">
<title>maven&#45;api&#45;model</title>
<polygon fill="none" stroke="black" points="775.5,-346 662.75,-346 662.75,-310 775.5,-310 775.5,-346"/>
<text xml:space="preserve" text-anchor="middle" x="719.12" y="-322.95" font-family="Times,serif" font-size="14.00">maven&#45;api&#45;model</text>
</g>
<!-- maven&#45;api&#45;core&#45;&gt;maven&#45;api&#45;model -->
<g id="edge1" class="edge">
<title>maven&#45;api&#45;core&#45;&gt;maven&#45;api&#45;model</title>
<path fill="none" stroke="black" d="M612.07,-591.68C617.5,-587.71 622.66,-583.14 626.75,-578 656.17,-541.04 646.57,-522.38 662.75,-478 678.09,-435.91 696.1,-387.28 707.31,-357.08"/>
<polygon fill="black" stroke="black" points="710.53,-358.47 710.73,-347.88 703.97,-356.03 710.53,-358.47"/>
</g>
<!-- maven&#45;api&#45;xml -->
<g id="node3" class="node">
<title>maven&#45;api&#45;xml</title>
<polygon fill="none" stroke="black" points="911.5,-281 811.5,-281 811.5,-245 911.5,-245 911.5,-281"/>
<text xml:space="preserve" text-anchor="middle" x="861.5" y="-257.95" font-family="Times,serif" font-size="14.00">maven&#45;api&#45;xml</text>
</g>
<!-- maven&#45;api&#45;core&#45;&gt;maven&#45;api&#45;xml -->
<g id="edge2" class="edge">
<title>maven&#45;api&#45;core&#45;&gt;maven&#45;api&#45;xml</title>
<path fill="none" stroke="black" d="M609.31,-591.65C615.4,-587.53 621.5,-582.91 626.75,-578 724.57,-486.5 810.06,-349.65 844.43,-291.16"/>
<polygon fill="black" stroke="black" points="847.28,-293.2 849.29,-282.8 841.24,-289.68 847.28,-293.2"/>
</g>
<!-- maven&#45;api&#45;model&#45;&gt;maven&#45;api&#45;xml -->
<g id="edge3" class="edge">
<title>maven&#45;api&#45;model&#45;&gt;maven&#45;api&#45;xml</title>
<path fill="none" stroke="black" d="M759.98,-309.55C775.68,-302.27 793.9,-293.84 810.48,-286.16"/>
<polygon fill="black" stroke="black" points="811.57,-289.51 819.18,-282.13 808.63,-283.16 811.57,-289.51"/>
</g>
<!-- maven&#45;api&#45;spi -->
<g id="node4" class="node">
<title>maven&#45;api&#45;spi</title>
<polygon fill="none" stroke="black" points="488.5,-720 394.5,-720 394.5,-684 488.5,-684 488.5,-720"/>
<text xml:space="preserve" text-anchor="middle" x="441.5" y="-696.95" font-family="Times,serif" font-size="14.00">maven&#45;api&#45;spi</text>
</g>
<!-- maven&#45;api&#45;spi&#45;&gt;maven&#45;api&#45;core -->
<g id="edge4" class="edge">
<title>maven&#45;api&#45;spi&#45;&gt;maven&#45;api&#45;core</title>
<path fill="none" stroke="black" d="M468.99,-683.6C489.13,-669.63 517.03,-650.25 539.15,-634.89"/>
<polygon fill="black" stroke="black" points="541.09,-637.81 547.31,-629.23 537.1,-632.06 541.09,-637.81"/>
</g>
<!-- maven&#45;api&#45;spi&#45;&gt;maven&#45;api&#45;model -->
<g id="edge5" class="edge">
<title>maven&#45;api&#45;spi&#45;&gt;maven&#45;api&#45;model</title>
<path fill="none" stroke="black" d="M488.6,-697.5C530.25,-691.01 590.43,-675.25 626.75,-637 702.25,-557.49 715.7,-418.6 717.86,-357.87"/>
<polygon fill="black" stroke="black" points="721.36,-358.07 718.12,-347.98 714.36,-357.89 721.36,-358.07"/>
</g>
<!-- maven&#45;cli -->
<g id="node5" class="node">
<title>maven&#45;cli</title>
<polygon fill="none" stroke="black" points="70.75,-377 0,-377 0,-341 70.75,-341 70.75,-377"/>
<text xml:space="preserve" text-anchor="middle" x="35.38" y="-353.95" font-family="Times,serif" font-size="14.00">maven&#45;cli</text>
</g>
<!-- maven&#45;cli&#45;&gt;maven&#45;api&#45;core -->
<g id="edge6" class="edge">
<title>maven&#45;cli&#45;&gt;maven&#45;api&#45;core</title>
<path fill="none" stroke="black" d="M36.87,-377.29C38.96,-422.59 49.89,-541.83 106.75,-618 143.16,-666.78 166.93,-666.9 223.25,-690 333.8,-735.34 382.89,-783.45 489.25,-729 526.03,-710.17 550.64,-667.4 563.72,-638.6"/>
<polygon fill="black" stroke="black" points="566.81,-640.29 567.58,-629.72 560.39,-637.5 566.81,-640.29"/>
</g>
<!-- maven&#45;cli&#45;&gt;maven&#45;api&#45;model -->
<g id="edge7" class="edge">
<title>maven&#45;cli&#45;&gt;maven&#45;api&#45;model</title>
<path fill="none" stroke="black" d="M40.04,-340.68C47.5,-307.23 67.22,-235.48 106.75,-189 168.62,-116.25 194,-76 289.5,-76 289.5,-76 289.5,-76 442.5,-76 533.64,-76 560.43,-103.49 626.75,-166 667.04,-203.97 694.35,-263.74 707.99,-299.08"/>
<polygon fill="black" stroke="black" points="704.63,-300.08 711.41,-308.22 711.18,-297.63 704.63,-300.08"/>
</g>
<!-- maven&#45;cli&#45;&gt;maven&#45;api&#45;xml -->
<g id="edge9" class="edge">
<title>maven&#45;cli&#45;&gt;maven&#45;api&#45;xml</title>
<path fill="none" stroke="black" d="M39.82,-340.7C54.77,-267.55 120.96,0 289.5,0 289.5,0 289.5,0 577,0 713.69,0 812.28,-166.37 846.91,-234.46"/>
<polygon fill="black" stroke="black" points="843.65,-235.76 851.24,-243.15 849.92,-232.64 843.65,-235.76"/>
</g>
<!-- maven&#45;cli&#45;&gt;maven&#45;api&#45;spi -->
<g id="edge8" class="edge">
<title>maven&#45;cli&#45;&gt;maven&#45;api&#45;spi</title>
<path fill="none" stroke="black" d="M38.39,-377.33C43.49,-416.56 60.06,-510.04 106.75,-571 173.44,-658.07 306.44,-687.34 382.88,-697.13"/>
<polygon fill="black" stroke="black" points="382.33,-700.59 392.68,-698.31 383.17,-693.64 382.33,-700.59"/>
</g>
<!-- maven&#45;artifact -->
<g id="node6" class="node">
<title>maven&#45;artifact</title>
<polygon fill="none" stroke="black" points="489.25,-384 393.75,-384 393.75,-348 489.25,-348 489.25,-384"/>
<text xml:space="preserve" text-anchor="middle" x="441.5" y="-360.95" font-family="Times,serif" font-size="14.00">maven&#45;artifact</text>
</g>
<!-- maven&#45;cli&#45;&gt;maven&#45;artifact -->
<g id="edge10" class="edge">
<title>maven&#45;cli&#45;&gt;maven&#45;artifact</title>
<path fill="none" stroke="black" d="M71.08,-356.64C82.44,-355.97 95.13,-355.33 106.75,-355 203.44,-352.25 315.86,-357.76 382.44,-361.93"/>
<polygon fill="black" stroke="black" points="381.81,-365.39 392.01,-362.54 382.26,-358.41 381.81,-365.39"/>
</g>
<!-- maven&#45;core -->
<g id="node7" class="node">
<title>maven&#45;core</title>
<polygon fill="none" stroke="black" points="187.25,-400 106.75,-400 106.75,-364 187.25,-364 187.25,-400"/>
<text xml:space="preserve" text-anchor="middle" x="147" y="-376.95" font-family="Times,serif" font-size="14.00">maven&#45;core</text>
</g>
<!-- maven&#45;cli&#45;&gt;maven&#45;core -->
<g id="edge11" class="edge">
<title>maven&#45;cli&#45;&gt;maven&#45;core</title>
<path fill="none" stroke="black" d="M71.06,-366.28C78.82,-367.91 87.21,-369.67 95.47,-371.4"/>
<polygon fill="black" stroke="black" points="94.59,-374.79 105.1,-373.42 96.03,-367.94 94.59,-374.79"/>
</g>
<!-- maven&#45;di -->
<g id="node8" class="node">
<title>maven&#45;di</title>
<polygon fill="none" stroke="black" points="475.38,-514 407.62,-514 407.62,-478 475.38,-478 475.38,-514"/>
<text xml:space="preserve" text-anchor="middle" x="441.5" y="-490.95" font-family="Times,serif" font-size="14.00">maven&#45;di</text>
</g>
<!-- maven&#45;cli&#45;&gt;maven&#45;di -->
<g id="edge12" class="edge">
<title>maven&#45;cli&#45;&gt;maven&#45;di</title>
<path fill="none" stroke="black" d="M53.31,-377.05C83.77,-408.06 151.38,-470.39 223.25,-494 280.65,-512.86 351.28,-508.9 396.1,-503.29"/>
<polygon fill="black" stroke="black" points="396.53,-506.77 405.98,-501.97 395.6,-499.83 396.53,-506.77"/>
</g>
<!-- maven&#45;impl -->
<g id="node9" class="node">
<title>maven&#45;impl</title>
<polygon fill="none" stroke="black" points="331.88,-594 249.12,-594 249.12,-558 331.88,-558 331.88,-594"/>
<text xml:space="preserve" text-anchor="middle" x="290.5" y="-570.95" font-family="Times,serif" font-size="14.00">maven&#45;impl</text>
</g>
<!-- maven&#45;cli&#45;&gt;maven&#45;impl -->
<g id="edge13" class="edge">
<title>maven&#45;cli&#45;&gt;maven&#45;impl</title>
<path fill="none" stroke="black" d="M37.84,-377.46C41.82,-414.44 56.22,-497.68 106.75,-540 142.96,-570.33 197.35,-577.77 237.39,-578.56"/>
<polygon fill="black" stroke="black" points="237.26,-582.06 247.28,-578.61 237.29,-575.06 237.26,-582.06"/>
</g>
<!-- maven&#45;model -->
<g id="node10" class="node">
<title>maven&#45;model</title>
<polygon fill="none" stroke="black" points="487.38,-178 395.62,-178 395.62,-142 487.38,-142 487.38,-178"/>
<text xml:space="preserve" text-anchor="middle" x="441.5" y="-154.95" font-family="Times,serif" font-size="14.00">maven&#45;model</text>
</g>
<!-- maven&#45;cli&#45;&gt;maven&#45;model -->
<g id="edge14" class="edge">
<title>maven&#45;cli&#45;&gt;maven&#45;model</title>
<path fill="none" stroke="black" d="M47.56,-340.61C72.97,-300.82 139.35,-207.32 223.25,-170 274.19,-147.34 338.63,-147.49 384.06,-151.68"/>
<polygon fill="black" stroke="black" points="383.66,-155.16 393.97,-152.7 384.38,-148.2 383.66,-155.16"/>
</g>
<!-- maven&#45;support -->
<g id="node11" class="node">
<title>maven&#45;support</title>
<polygon fill="none" stroke="black" points="624.88,-254 527.12,-254 527.12,-218 624.88,-218 624.88,-254"/>
<text xml:space="preserve" text-anchor="middle" x="576" y="-230.95" font-family="Times,serif" font-size="14.00">maven&#45;support</text>
</g>
<!-- maven&#45;cli&#45;&gt;maven&#45;support -->
<g id="edge15" class="edge">
<title>maven&#45;cli&#45;&gt;maven&#45;support</title>
<path fill="none" stroke="black" d="M39.04,-340.68C44.97,-306.27 62.43,-231.63 106.75,-189 146.53,-150.74 169.33,-157.77 223.25,-146 338.89,-120.77 382.07,-82.77 489.25,-133 521.88,-148.29 546.41,-182.78 560.7,-207.64"/>
<polygon fill="black" stroke="black" points="557.58,-209.22 565.47,-216.29 563.71,-205.85 557.58,-209.22"/>
</g>
<!-- maven&#45;core&#45;&gt;maven&#45;api&#45;core -->
<g id="edge16" class="edge">
<title>maven&#45;core&#45;&gt;maven&#45;api&#45;core</title>
<path fill="none" stroke="black" d="M173.99,-400.42C187.97,-409.48 205.87,-419.76 223.25,-426 335.96,-466.47 389.89,-402.14 489.25,-469 529.22,-495.9 553.68,-548.31 565.76,-581.1"/>
<polygon fill="black" stroke="black" points="562.4,-582.1 569.02,-590.38 569.01,-579.78 562.4,-582.1"/>
</g>
<!-- maven&#45;core&#45;&gt;maven&#45;api&#45;model -->
<g id="edge17" class="edge">
<title>maven&#45;core&#45;&gt;maven&#45;api&#45;model</title>
<path fill="none" stroke="black" d="M187.42,-385.52C198.96,-386.45 211.6,-387.37 223.25,-388 341.32,-394.43 372.14,-409.31 489.25,-393 547.64,-384.87 612.07,-365.6 657.65,-350.14"/>
<polygon fill="black" stroke="black" points="658.78,-353.45 667.1,-346.89 656.5,-346.83 658.78,-353.45"/>
</g>
<!-- maven&#45;core&#45;&gt;maven&#45;api&#45;xml -->
<g id="edge19" class="edge">
<title>maven&#45;core&#45;&gt;maven&#45;api&#45;xml</title>
<path fill="none" stroke="black" d="M148.79,-363.72C151.6,-322.47 164.47,-221.73 223.25,-170 281.46,-118.77 316.65,-141.27 393.75,-133 563.33,-114.81 624.02,-93.63 775.5,-172 803.68,-186.58 827.48,-214.35 842.67,-235.39"/>
<polygon fill="black" stroke="black" points="839.77,-237.36 848.35,-243.57 845.52,-233.36 839.77,-237.36"/>
</g>
<!-- maven&#45;core&#45;&gt;maven&#45;api&#45;spi -->
<g id="edge18" class="edge">
<title>maven&#45;core&#45;&gt;maven&#45;api&#45;spi</title>
<path fill="none" stroke="black" d="M149.42,-400.47C153.52,-441.82 168.85,-542.9 223.25,-603 229.22,-609.6 325.03,-651.93 387.4,-679.06"/>
<polygon fill="black" stroke="black" points="385.91,-682.23 396.48,-683.01 388.7,-675.81 385.91,-682.23"/>
</g>
<!-- maven&#45;core&#45;&gt;maven&#45;artifact -->
<g id="edge20" class="edge">
<title>maven&#45;core&#45;&gt;maven&#45;artifact</title>
<path fill="none" stroke="black" d="M187.45,-379.84C237.59,-377.1 324.57,-372.34 382.33,-369.18"/>
<polygon fill="black" stroke="black" points="382.17,-372.7 391.96,-368.66 381.78,-365.71 382.17,-372.7"/>
</g>
<!-- maven&#45;core&#45;&gt;maven&#45;di -->
<g id="edge21" class="edge">
<title>maven&#45;core&#45;&gt;maven&#45;di</title>
<path fill="none" stroke="black" d="M159.32,-400.41C172.24,-419.68 195.25,-449.16 223.25,-464 277.79,-492.9 350.24,-498.04 396.13,-497.92"/>
<polygon fill="black" stroke="black" points="396.01,-501.42 405.97,-497.8 395.93,-494.42 396.01,-501.42"/>
</g>
<!-- maven&#45;core&#45;&gt;maven&#45;impl -->
<g id="edge22" class="edge">
<title>maven&#45;core&#45;&gt;maven&#45;impl</title>
<path fill="none" stroke="black" d="M158.06,-400.11C171.71,-424.17 197.37,-467.62 223.25,-502 235.7,-518.54 251.05,-535.85 263.83,-549.56"/>
<polygon fill="black" stroke="black" points="260.97,-551.62 270.38,-556.49 266.06,-546.82 260.97,-551.62"/>
</g>
<!-- maven&#45;core&#45;&gt;maven&#45;model -->
<g id="edge23" class="edge">
<title>maven&#45;core&#45;&gt;maven&#45;model</title>
<path fill="none" stroke="black" d="M150.83,-363.68C157.2,-328.97 175.94,-253.58 223.25,-214 247.44,-193.76 328.3,-177.48 384.23,-168.27"/>
<polygon fill="black" stroke="black" points="384.6,-171.76 393.92,-166.71 383.49,-164.85 384.6,-171.76"/>
</g>
<!-- maven&#45;core&#45;&gt;maven&#45;support -->
<g id="edge25" class="edge">
<title>maven&#45;core&#45;&gt;maven&#45;support</title>
<path fill="none" stroke="black" d="M153.15,-363.94C162.2,-335.94 183.83,-282.82 223.25,-259 313.55,-204.44 441.75,-212.93 515.85,-224.3"/>
<polygon fill="black" stroke="black" points="514.9,-227.69 525.33,-225.82 516.02,-220.78 514.9,-227.69"/>
</g>
<!-- maven&#45;model&#45;builder -->
<g id="node12" class="node">
<title>maven&#45;model&#45;builder</title>
<polygon fill="none" stroke="black" points="357.75,-304 223.25,-304 223.25,-268 357.75,-268 357.75,-304"/>
<text xml:space="preserve" text-anchor="middle" x="290.5" y="-280.95" font-family="Times,serif" font-size="14.00">maven&#45;model&#45;builder</text>
</g>
<!-- maven&#45;core&#45;&gt;maven&#45;model&#45;builder -->
<g id="edge24" class="edge">
<title>maven&#45;core&#45;&gt;maven&#45;model&#45;builder</title>
<path fill="none" stroke="black" d="M174.95,-363.72C197.18,-348.64 228.91,-327.1 253.35,-310.53"/>
<polygon fill="black" stroke="black" points="255.09,-313.58 261.4,-305.06 251.16,-307.78 255.09,-313.58"/>
</g>
<!-- maven&#45;impl&#45;&gt;maven&#45;api&#45;core -->
<g id="edge26" class="edge">
<title>maven&#45;impl&#45;&gt;maven&#45;api&#45;core</title>
<path fill="none" stroke="black" d="M332.18,-583.99C350.87,-587.45 373.38,-591.31 393.75,-594 433.6,-599.26 478.61,-603.24 513.8,-605.92"/>
<polygon fill="black" stroke="black" points="513.13,-609.38 523.36,-606.63 513.64,-602.4 513.13,-609.38"/>
</g>
<!-- maven&#45;impl&#45;&gt;maven&#45;api&#45;model -->
<g id="edge27" class="edge">
<title>maven&#45;impl&#45;&gt;maven&#45;api&#45;model</title>
<path fill="none" stroke="black" d="M332.1,-578.74C373.52,-579.92 438.7,-577.2 489.25,-554 539.25,-531.06 647.86,-409.56 695.25,-354.8"/>
<polygon fill="black" stroke="black" points="697.7,-357.31 701.58,-347.45 692.4,-352.74 697.7,-357.31"/>
</g>
<!-- maven&#45;impl&#45;&gt;maven&#45;api&#45;xml -->
<g id="edge29" class="edge">
<title>maven&#45;impl&#45;&gt;maven&#45;api&#45;xml</title>
<path fill="none" stroke="black" d="M332.23,-589.87C340.68,-592.83 349.52,-595.97 357.75,-599 471.07,-640.69 515.53,-683.99 626.75,-637 772.67,-575.35 835.4,-369.1 854.1,-292.21"/>
<polygon fill="black" stroke="black" points="857.41,-293.44 856.29,-282.91 850.59,-291.84 857.41,-293.44"/>
</g>
<!-- maven&#45;impl&#45;&gt;maven&#45;api&#45;spi -->
<g id="edge28" class="edge">
<title>maven&#45;impl&#45;&gt;maven&#45;api&#45;spi</title>
<path fill="none" stroke="black" d="M325.33,-594.49C336.33,-601.37 348.16,-609.78 357.75,-619 377.75,-638.23 373.99,-650.52 393.75,-670 396.05,-672.27 398.53,-674.48 401.1,-676.61"/>
<polygon fill="black" stroke="black" points="398.83,-679.28 408.89,-682.6 403.1,-673.73 398.83,-679.28"/>
</g>
<!-- maven&#45;impl&#45;&gt;maven&#45;di -->
<g id="edge30" class="edge">
<title>maven&#45;impl&#45;&gt;maven&#45;di</title>
<path fill="none" stroke="black" d="M325.68,-557.65C346.92,-546.25 374.41,-531.49 397.16,-519.27"/>
<polygon fill="black" stroke="black" points="398.76,-522.39 405.91,-514.57 395.45,-516.22 398.76,-522.39"/>
</g>
<!-- maven&#45;impl&#45;&gt;maven&#45;support -->
<g id="edge31" class="edge">
<title>maven&#45;impl&#45;&gt;maven&#45;support</title>
<path fill="none" stroke="black" d="M332.1,-569.88C383.21,-561.39 467.01,-544.61 489.25,-523 561.84,-452.45 573.62,-323.26 575.09,-265.39"/>
<polygon fill="black" stroke="black" points="578.59,-265.74 575.25,-255.68 571.59,-265.63 578.59,-265.74"/>
</g>
<!-- maven&#45;model&#45;&gt;maven&#45;api&#45;model -->
<g id="edge32" class="edge">
<title>maven&#45;model&#45;&gt;maven&#45;api&#45;model</title>
<path fill="none" stroke="black" d="M487.51,-163.77C527.03,-168.89 584.61,-180.91 626.75,-209 661.34,-232.06 688.32,-272.62 703.73,-299.9"/>
<polygon fill="black" stroke="black" points="700.46,-301.22 708.34,-308.31 706.6,-297.86 700.46,-301.22"/>
</g>
<!-- maven&#45;model&#45;&gt;maven&#45;api&#45;xml -->
<g id="edge33" class="edge">
<title>maven&#45;model&#45;&gt;maven&#45;api&#45;xml</title>
<path fill="none" stroke="black" d="M487.73,-156.99C525.37,-155.54 580.14,-155.92 626.75,-166 696.27,-181.03 771.34,-215.84 817.14,-239.41"/>
<polygon fill="black" stroke="black" points="815.47,-242.48 825.95,-243.99 818.7,-236.27 815.47,-242.48"/>
</g>
<!-- maven&#45;model&#45;&gt;maven&#45;support -->
<g id="edge34" class="edge">
<title>maven&#45;model&#45;&gt;maven&#45;support</title>
<path fill="none" stroke="black" d="M474.57,-178.4C492.1,-188.45 514.03,-201.03 532.92,-211.86"/>
<polygon fill="black" stroke="black" points="531.03,-214.82 541.45,-216.76 534.52,-208.74 531.03,-214.82"/>
</g>
<!-- maven&#45;support&#45;&gt;maven&#45;api&#45;model -->
<g id="edge40" class="edge">
<title>maven&#45;support&#45;&gt;maven&#45;api&#45;model</title>
<path fill="none" stroke="black" d="M605.22,-254.4C626.85,-268.5 656.91,-288.1 680.58,-303.52"/>
<polygon fill="black" stroke="black" points="678.4,-306.28 688.69,-308.81 682.22,-300.42 678.4,-306.28"/>
</g>
<!-- maven&#45;support&#45;&gt;maven&#45;api&#45;xml -->
<g id="edge41" class="edge">
<title>maven&#45;support&#45;&gt;maven&#45;api&#45;xml</title>
<path fill="none" stroke="black" d="M625.09,-240.58C673.26,-245.17 747.56,-252.24 799.77,-257.22"/>
<polygon fill="black" stroke="black" points="799.43,-260.7 809.71,-258.16 800.09,-253.73 799.43,-260.7"/>
</g>
<!-- maven&#45;model&#45;builder&#45;&gt;maven&#45;api&#45;model -->
<g id="edge35" class="edge">
<title>maven&#45;model&#45;builder&#45;&gt;maven&#45;api&#45;model</title>
<path fill="none" stroke="black" d="M358.16,-292.56C438.01,-300.42 571.01,-313.52 651.05,-321.4"/>
<polygon fill="black" stroke="black" points="650.66,-324.88 660.95,-322.37 651.35,-317.91 650.66,-324.88"/>
</g>
<!-- maven&#45;model&#45;builder&#45;&gt;maven&#45;api&#45;xml -->
<g id="edge36" class="edge">
<title>maven&#45;model&#45;builder&#45;&gt;maven&#45;api&#45;xml</title>
<path fill="none" stroke="black" d="M358.16,-283.31C469.72,-278.8 692.55,-269.79 799.91,-265.45"/>
<polygon fill="black" stroke="black" points="799.81,-268.96 809.67,-265.05 799.53,-261.96 799.81,-268.96"/>
</g>
<!-- maven&#45;model&#45;builder&#45;&gt;maven&#45;artifact -->
<g id="edge37" class="edge">
<title>maven&#45;model&#45;builder&#45;&gt;maven&#45;artifact</title>
<path fill="none" stroke="black" d="M325.68,-304.35C346.62,-315.59 373.64,-330.1 396.2,-342.22"/>
<polygon fill="black" stroke="black" points="394.42,-345.23 404.88,-346.88 397.73,-339.06 394.42,-345.23"/>
</g>
<!-- maven&#45;model&#45;builder&#45;&gt;maven&#45;model -->
<g id="edge38" class="edge">
<title>maven&#45;model&#45;builder&#45;&gt;maven&#45;model</title>
<path fill="none" stroke="black" d="M313.17,-267.68C338.77,-246.03 381.52,-209.88 410.34,-185.5"/>
<polygon fill="black" stroke="black" points="412.28,-188.45 417.65,-179.32 407.76,-183.11 412.28,-188.45"/>
</g>
<!-- maven&#45;model&#45;builder&#45;&gt;maven&#45;support -->
<g id="edge39" class="edge">
<title>maven&#45;model&#45;builder&#45;&gt;maven&#45;support</title>
<path fill="none" stroke="black" d="M357.97,-274.28C405.64,-265.87 469.33,-254.64 515.37,-246.52"/>
<polygon fill="black" stroke="black" points="515.94,-249.97 525.18,-244.79 514.73,-243.08 515.94,-249.97"/>
</g>
</g>
</svg>
